<svg width="169" height="28" viewBox="0 0 169 28" fill="none" xmlns="http://www.w3.org/2000/svg">
<rect width="169" height="28" fill="white"/>
<line x1="6" y1="12.5" x2="157" y2="12.5" stroke="#1F818C" stroke-width="3"/>
<circle cx="14" cy="14" r="14" fill="#1F818C"/>
<circle cx="61" cy="14" r="11.5" fill="#1F818C" stroke="#1F818C" stroke-width="5"/>
<circle cx="108" cy="14" r="11.5" fill="#DCFBFF" stroke="#1F818C" stroke-width="5"/>
<circle cx="155" cy="14" r="11.5" fill="#DCFBFF" stroke="#1F818C" stroke-width="5"/>
<path d="M14.9716 9.27273V18H13.9148V10.3807H13.8636L11.733 11.7955V10.7216L13.9148 9.27273H14.9716Z" fill="white"/>
<path d="M57.9034 18V17.233L60.7841 14.0795C61.1222 13.7102 61.4006 13.3892 61.6193 13.1165C61.8381 12.8409 62 12.5824 62.1051 12.3409C62.2131 12.0966 62.267 11.8409 62.267 11.5739C62.267 11.267 62.1932 11.0014 62.0455 10.777C61.9006 10.5526 61.7017 10.3793 61.4489 10.2571C61.196 10.1349 60.9119 10.0739 60.5966 10.0739C60.2614 10.0739 59.9688 10.1435 59.7188 10.2827C59.4716 10.419 59.2798 10.6108 59.1435 10.858C59.0099 11.1051 58.9432 11.3949 58.9432 11.7273H57.9375C57.9375 11.2159 58.0554 10.767 58.2912 10.3807C58.527 9.99432 58.848 9.69318 59.2543 9.47727C59.6634 9.26136 60.1222 9.15341 60.6307 9.15341C61.142 9.15341 61.5952 9.26136 61.9901 9.47727C62.3849 9.69318 62.6946 9.98437 62.919 10.3509C63.1435 10.7173 63.2557 11.125 63.2557 11.5739C63.2557 11.8949 63.1974 12.2088 63.081 12.5156C62.9673 12.8196 62.7685 13.1591 62.4844 13.5341C62.2031 13.9062 61.8125 14.3608 61.3125 14.8977L59.3523 16.9943V17.0625H63.4091V18H57.9034Z" fill="white"/>
<path d="M107.852 18.1193C107.29 18.1193 106.788 18.0227 106.348 17.8295C105.911 17.6364 105.563 17.3679 105.304 17.0241C105.048 16.6776 104.909 16.2756 104.886 15.8182H105.96C105.983 16.0994 106.08 16.3423 106.25 16.5469C106.42 16.7486 106.643 16.9048 106.919 17.0156C107.195 17.1264 107.5 17.1818 107.835 17.1818C108.21 17.1818 108.543 17.1165 108.832 16.9858C109.122 16.8551 109.349 16.6733 109.514 16.4403C109.679 16.2074 109.761 15.9375 109.761 15.6307C109.761 15.3097 109.682 15.027 109.523 14.7827C109.364 14.5355 109.131 14.3423 108.824 14.2031C108.517 14.0639 108.142 13.9943 107.699 13.9943H107V13.0568H107.699C108.045 13.0568 108.349 12.9943 108.611 12.8693C108.875 12.7443 109.081 12.5682 109.229 12.3409C109.379 12.1136 109.455 11.8466 109.455 11.5398C109.455 11.2443 109.389 10.9872 109.259 10.7685C109.128 10.5497 108.943 10.3793 108.705 10.2571C108.469 10.1349 108.19 10.0739 107.869 10.0739C107.568 10.0739 107.284 10.1293 107.017 10.2401C106.753 10.348 106.537 10.5057 106.369 10.7131C106.202 10.9176 106.111 11.1648 106.097 11.4545H105.074C105.091 10.9972 105.229 10.5966 105.487 10.2528C105.746 9.90625 106.084 9.63636 106.501 9.44318C106.922 9.25 107.384 9.15341 107.886 9.15341C108.426 9.15341 108.889 9.26278 109.276 9.48153C109.662 9.69744 109.959 9.98295 110.166 10.3381C110.374 10.6932 110.477 11.0767 110.477 11.4886C110.477 11.9801 110.348 12.3991 110.089 12.7457C109.834 13.0923 109.486 13.3324 109.045 13.4659V13.5341C109.597 13.625 110.027 13.8594 110.337 14.2372C110.646 14.6122 110.801 15.0767 110.801 15.6307C110.801 16.1051 110.672 16.5312 110.413 16.9091C110.158 17.2841 109.808 17.5795 109.365 17.7955C108.922 18.0114 108.418 18.1193 107.852 18.1193Z" fill="white"/>
<path d="M151.699 16.2102V15.3409L155.534 9.27273H156.165V10.6193H155.739L152.841 15.2045V15.2727H158.006V16.2102H151.699ZM155.807 18V15.946V15.5412V9.27273H156.812V18H155.807Z" fill="white"/>
</svg>
